<svg width="500" height="143" viewBox="0 0 500 143" fill="none" xmlns="http://www.w3.org/2000/svg">
<g clip-path="url(#clip0_54_55)">
<path d="M500 67.9675C500 86.7346 492.392 103.717 480.093 116.022C467.796 128.316 450.81 135.926 432.041 135.926L89.6169 136.014C74.5917 136.014 60.702 131.141 49.4451 122.892C25.4988 139.342 0 143.126 0 143.126C0 143.126 21.6019 122.131 21.6019 68.0051C21.6019 30.4426 52.0449 4.52995e-05 89.601 4.52995e-05H432.041C469.573 4.52995e-05 500 30.4332 500 67.9675Z" fill="#8647FD"/>
<path d="M90.1316 95.4803C76.5723 95.4803 67.608 87.9474 66.8547 77.4012H78.2295C79.2088 83.2769 83.6532 86.6668 91.0355 86.6668C97.2126 86.6668 101.582 83.8042 101.582 79.7364C101.582 76.0453 98.8698 74.5387 92.9941 73.2581L85.2351 71.5255C74.3877 69.115 68.3613 64.6705 68.3613 56.8363C68.3613 46.6668 77.6269 40.4897 89.6796 40.4897C103.239 40.4897 110.32 47.6461 111.45 55.179H100.678C99.4724 51.6385 95.7813 49.002 89.4536 49.002C83.9545 49.002 79.5854 51.5632 79.5854 55.4803C79.5854 58.6442 81.8453 60.0754 87.721 61.356L94.124 62.7873C106.779 65.6498 113.032 70.0189 113.032 78.6065C113.032 88.55 103.691 95.4803 90.1316 95.4803Z" fill="#0B0414"/>
<path d="M122.598 44.1809H132.692V55.631H140.451V63.5406H132.692V80.9417C132.692 84.7835 134.048 86.8928 137.739 86.8928C138.719 86.8928 139.848 86.7421 141.204 86.4408V93.8984C139.924 94.3504 137.513 94.727 134.952 94.727C128.398 94.727 122.598 91.9398 122.598 82.6743V63.5406H115.969V55.631H122.598V44.1809Z" fill="#0B0414"/>
<path d="M165.25 95.4803C153.8 95.4803 144.911 87.0434 144.911 74.9907C144.911 62.938 153.8 54.501 165.25 54.501C176.701 54.501 185.589 62.938 185.589 74.9907C185.589 87.0434 176.701 95.4803 165.25 95.4803ZM165.25 87.1941C171.201 87.1941 174.968 82.9003 174.968 74.9907C174.968 67.0811 171.201 62.7873 165.25 62.7873C159.299 62.7873 155.533 67.0811 155.533 74.9907C155.533 82.9003 159.299 87.1941 165.25 87.1941Z" fill="#0B0414"/>
<path d="M210.186 95.4803C198.434 95.4803 190.449 87.3447 190.449 75.066C190.449 63.0133 198.585 54.501 210.487 54.501C220.657 54.501 227.21 60.8287 228.265 68.3617H218.171C217.191 65.4238 214.705 62.938 210.336 62.938C204.988 62.938 201.297 67.3824 201.297 75.066C201.297 82.7496 204.988 87.0434 210.336 87.0434C214.705 87.0434 217.191 84.5575 218.171 81.6197H228.265C227.286 89.1526 220.506 95.4803 210.186 95.4803Z" fill="#0B0414"/>
<path d="M235.231 94.3504V41.6197H245.476V71.2242L260.918 55.631H274.176L258.056 71.1489L274.628 94.3504H262.124L250.9 78.0792L245.476 83.2769V94.3504H235.231Z" fill="#0B0414"/>
<path d="M311.849 41.6197H322.772V94.3504H311.849V72.2788H290.681V94.3504H279.758V41.6197H290.681V63.0886H311.849V41.6197Z" fill="#0B0414"/>
<path d="M345.206 95.4803C338.201 95.4803 332.4 90.9606 332.4 81.1677V55.631H342.796V79.2845C342.796 83.8042 344.302 87.0434 348.822 87.0434C352.438 87.0434 355.752 84.1056 355.752 76.7233V55.631H366.148V94.3504H355.978V89.9813C353.869 93.3711 350.63 95.4803 345.206 95.4803Z" fill="#0B0414"/>
<path d="M397.582 95.4803C392.309 95.4803 388.091 92.9191 386.207 89.68V94.3504H375.812V41.6197H386.207V60.0754C388.091 56.7609 392.309 54.501 397.582 54.501C407.375 54.501 414.983 62.1847 414.983 74.9907C414.983 87.7967 407.375 95.4803 397.582 95.4803ZM395.322 87.3447C401.349 87.3447 404.362 82.5236 404.362 74.9907C404.362 67.4577 401.349 62.6366 395.322 62.6366C389.672 62.6366 386.057 67.8344 386.057 74.9907C386.057 82.147 389.672 87.3447 395.322 87.3447Z" fill="#0B0414"/>
<path d="M443.621 91.7138H434.205V79.2845H421.022V70.2449H434.205V57.8155H443.621V70.2449H456.804V79.2845H443.621V91.7138Z" fill="#0B0414"/>
</g>
<defs>
<clipPath id="clip0_54_55">
<rect width="500" height="143" fill="white"/>
</clipPath>
</defs>
</svg>
