<svg width="500" height="143" viewBox="0 0 500 143" fill="none" xmlns="http://www.w3.org/2000/svg">
<g clip-path="url(#clip0_74_158)">
<path d="M500 67.9675C500 86.7346 492.392 103.717 480.093 116.022C467.796 128.316 450.81 135.926 432.041 135.926L89.6169 136.014C74.5917 136.014 60.702 131.141 49.4451 122.892C25.4988 139.342 0 143.126 0 143.126C0 143.126 21.6019 122.131 21.6019 68.0051C21.6019 30.4426 52.0449 4.57764e-05 89.601 4.57764e-05H432.041C469.573 4.57764e-05 500 30.4332 500 67.9675Z" fill="#8647FD"/>
<rect x="434.68" y="40.2" width="12" height="56" fill="white"/>
<rect x="412.68" y="74.2" width="12" height="56" transform="rotate(-90 412.68 74.2)" fill="white"/>
<path d="M78.72 97.4C64.32 97.4 54.8 89.4 54 78.2H66.08C67.12 84.44 71.84 88.04 79.68 88.04C86.24 88.04 90.88 85 90.88 80.68C90.88 76.76 88 75.16 81.76 73.8L73.52 71.96C62 69.4 55.6 64.68 55.6 56.36C55.6 45.56 65.44 39 78.24 39C92.64 39 100.16 46.6 101.36 54.6H89.92C88.64 50.84 84.72 48.04 78 48.04C72.16 48.04 67.52 50.76 67.52 54.92C67.52 58.28 69.92 59.8 76.16 61.16L82.96 62.68C96.4 65.72 103.04 70.36 103.04 79.48C103.04 90.04 93.12 97.4 78.72 97.4Z" fill="#0B0414"/>
<path d="M113.199 42.92H123.919V55.08H132.159V63.48H123.919V81.96C123.919 86.04 125.359 88.28 129.279 88.28C130.319 88.28 131.519 88.12 132.959 87.8V95.72C131.599 96.2 129.039 96.6 126.319 96.6C119.359 96.6 113.199 93.64 113.199 83.8V63.48H106.159V55.08H113.199V42.92Z" fill="#0B0414"/>
<path d="M158.496 97.4C146.336 97.4 136.896 88.44 136.896 75.64C136.896 62.84 146.336 53.88 158.496 53.88C170.656 53.88 180.096 62.84 180.096 75.64C180.096 88.44 170.656 97.4 158.496 97.4ZM158.496 88.6C164.816 88.6 168.816 84.04 168.816 75.64C168.816 67.24 164.816 62.68 158.496 62.68C152.176 62.68 148.176 67.24 148.176 75.64C148.176 84.04 152.176 88.6 158.496 88.6Z" fill="#0B0414"/>
<path d="M206.217 97.4C193.738 97.4 185.258 88.76 185.258 75.72C185.258 62.92 193.898 53.88 206.538 53.88C217.338 53.88 224.298 60.6 225.417 68.6H214.697C213.658 65.48 211.018 62.84 206.378 62.84C200.697 62.84 196.777 67.56 196.777 75.72C196.777 83.88 200.697 88.44 206.378 88.44C211.018 88.44 213.658 85.8 214.697 82.68H225.417C224.378 90.68 217.177 97.4 206.217 97.4Z" fill="#0B0414"/>
<path d="M232.816 96.2V40.2H243.696V71.64L260.096 55.08H274.176L257.056 71.56L274.656 96.2H261.376L249.456 78.92L243.696 84.44V96.2H232.816Z" fill="#0B0414"/>
<path d="M314.184 40.2H325.784V96.2H314.184V72.76H291.704V96.2H280.104V40.2H291.704V63H314.184V40.2Z" fill="#0B0414"/>
<path d="M349.609 97.4C342.169 97.4 336.009 92.6 336.009 82.2V55.08H347.049V80.2C347.049 85 348.649 88.44 353.449 88.44C357.289 88.44 360.809 85.32 360.809 77.48V55.08H371.849V96.2H361.049V91.56C358.809 95.16 355.369 97.4 349.609 97.4Z" fill="#0B0414"/>
<path d="M405.233 97.4C399.633 97.4 395.152 94.68 393.152 91.24V96.2H382.112V40.2H393.152V59.8C395.152 56.28 399.633 53.88 405.233 53.88C415.633 53.88 423.712 62.04 423.712 75.64C423.712 89.24 415.633 97.4 405.233 97.4ZM402.832 88.76C409.232 88.76 412.432 83.64 412.432 75.64C412.432 67.64 409.232 62.52 402.832 62.52C396.832 62.52 392.992 68.04 392.992 75.64C392.992 83.24 396.832 88.76 402.832 88.76Z" fill="#0B0414"/>
</g>
<defs>
<clipPath id="clip0_74_158">
<rect width="500" height="143" fill="white"/>
</clipPath>
</defs>
</svg>
